<svg width="661" height="727" viewBox="0 0 661 727" fill="none" xmlns="http://www.w3.org/2000/svg">
<path fill-rule="evenodd" clip-rule="evenodd" d="M459.146 117.614C354.737 162.053 281.533 265.588 281.533 386.221C281.533 506.854 354.737 610.39 459.146 654.828C424.076 669.755 385.485 678.014 344.966 678.014C183.813 678.014 53.1733 547.374 53.1733 386.221C53.1733 225.069 183.813 94.4286 344.966 94.4286C385.485 94.4286 424.076 102.688 459.146 117.614Z" fill="#E6E6E6"/>
<path fill-rule="evenodd" clip-rule="evenodd" d="M242.193 117.614C346.601 162.053 419.805 265.588 419.805 386.221C419.805 506.854 346.601 610.39 242.193 654.828C277.262 669.755 315.853 678.014 356.372 678.014C517.525 678.014 648.165 547.374 648.165 386.221C648.165 225.069 517.525 94.4286 356.372 94.4286C315.853 94.4286 277.262 102.688 242.193 117.614Z" fill="#E6E6E6"/>
</svg>
